<svg width="290" height="272" viewBox="0 0 290 272" fill="none" xmlns="http://www.w3.org/2000/svg">
<rect width="290" height="272" fill="#1E1E1E"/>
<path fill-rule="evenodd" clip-rule="evenodd" d="M145.529 175.311L75.2591 233.91L53.9803 216.33V251.978L76.2488 270.535L217.777 272L237.572 254.42V216.33L216.788 233.422L145.529 175.311ZM79.9349 257.469H86.8959C88.8902 257.469 90.6032 257.075 92.0351 256.289C93.4733 255.503 94.5759 254.375 95.3429 252.905C96.1164 251.434 96.5031 249.677 96.5031 247.631C96.5031 245.592 96.1164 243.841 95.3429 242.377C94.5759 240.913 93.4797 239.791 92.0542 239.012C90.6288 238.225 88.9285 237.832 86.9534 237.832H79.9349V257.469ZM86.7233 253.911H84.0865V241.389H86.7329C87.9601 241.389 88.9924 241.607 89.8298 242.041C90.6672 242.476 91.2968 243.154 91.7186 244.074C92.1469 244.995 92.361 246.18 92.361 247.631C92.361 249.095 92.1469 250.29 91.7186 251.217C91.2968 252.138 90.664 252.818 89.8202 253.259C88.9829 253.694 87.9505 253.911 86.7233 253.911ZM99.5785 237.832V257.469H103.73V250.508H106.761L110.48 257.469H115.063L110.897 249.84C110.957 249.814 111.016 249.787 111.075 249.76C112.142 249.261 112.957 248.545 113.52 247.612C114.082 246.672 114.363 245.551 114.363 244.247C114.363 242.949 114.085 241.821 113.529 240.862C112.979 239.897 112.177 239.152 111.123 238.628C110.074 238.097 108.809 237.832 107.326 237.832H99.5785ZM103.73 247.171H106.549C107.342 247.171 108 247.062 108.524 246.845C109.048 246.628 109.438 246.302 109.694 245.867C109.956 245.432 110.087 244.892 110.087 244.247C110.087 243.595 109.956 243.045 109.694 242.597C109.438 242.15 109.045 241.811 108.515 241.581C107.99 241.345 107.329 241.226 106.53 241.226H103.73V247.171ZM134.124 253.116C134.936 251.613 135.342 249.792 135.342 247.65C135.342 245.509 134.936 243.687 134.124 242.185C133.319 240.683 132.219 239.539 130.826 238.753C129.439 237.96 127.879 237.564 126.147 237.564C124.402 237.564 122.836 237.96 121.449 238.753C120.062 239.539 118.966 240.683 118.16 242.185C117.355 243.687 116.952 245.509 116.952 247.65C116.952 249.785 117.355 251.604 118.16 253.106C118.966 254.608 120.062 255.756 121.449 256.548C122.836 257.341 124.402 257.737 126.147 257.737C127.879 257.737 129.439 257.344 130.826 256.558C132.219 255.765 133.319 254.618 134.124 253.116ZM130.51 244.141C130.925 245.094 131.133 246.263 131.133 247.65C131.133 249.037 130.925 250.207 130.51 251.16C130.1 252.112 129.522 252.834 128.774 253.327C128.026 253.819 127.151 254.065 126.147 254.065C125.143 254.065 124.268 253.819 123.52 253.327C122.772 252.834 122.19 252.112 121.775 251.16C121.366 250.207 121.161 249.037 121.161 247.65C121.161 246.263 121.366 245.094 121.775 244.141C122.19 243.189 122.772 242.466 123.52 241.974C124.268 241.482 125.143 241.236 126.147 241.236C127.151 241.236 128.026 241.482 128.774 241.974C129.522 242.466 130.1 243.189 130.51 244.141ZM146.164 237.832H138.417V257.469H142.569V251.102H146.059C147.568 251.102 148.852 250.824 149.913 250.268C150.981 249.712 151.796 248.935 152.358 247.938C152.921 246.941 153.202 245.79 153.202 244.486C153.202 243.182 152.924 242.032 152.368 241.035C151.818 240.031 151.019 239.248 149.971 238.686C148.923 238.117 147.654 237.832 146.164 237.832ZM142.569 247.775H145.388C146.187 247.775 146.845 247.638 147.363 247.363C147.887 247.082 148.277 246.695 148.533 246.203C148.795 245.704 148.926 245.132 148.926 244.486C148.926 243.834 148.795 243.265 148.533 242.78C148.277 242.287 147.887 241.907 147.363 241.639C146.839 241.364 146.174 241.226 145.369 241.226H142.569V247.775ZM163.761 237.832H155.899V257.469H164.288C165.759 257.469 166.995 257.232 167.999 256.759C169.002 256.286 169.76 255.644 170.271 254.832C170.789 254.014 171.048 253.084 171.048 252.042C171.048 251.077 170.843 250.246 170.434 249.549C170.025 248.846 169.491 248.299 168.833 247.909C168.181 247.519 167.481 247.308 166.733 247.276V247.085C167.417 246.931 168.024 246.672 168.555 246.308C169.092 245.937 169.514 245.464 169.821 244.889C170.127 244.307 170.281 243.633 170.281 242.866C170.281 241.882 170.038 241.012 169.552 240.258C169.066 239.497 168.341 238.903 167.376 238.475C166.41 238.046 165.206 237.832 163.761 237.832ZM163.435 254.074H160.05V248.858H163.531C164.196 248.858 164.768 248.977 165.247 249.213C165.733 249.45 166.107 249.776 166.369 250.191C166.631 250.607 166.762 251.086 166.762 251.629C166.762 252.371 166.497 252.965 165.966 253.413C165.436 253.854 164.592 254.074 163.435 254.074ZM163.128 246.049H160.05V241.188H163.205C164.125 241.188 164.835 241.405 165.333 241.84C165.838 242.275 166.091 242.847 166.091 243.556C166.091 244.074 165.96 244.518 165.698 244.889C165.442 245.26 165.091 245.547 164.643 245.752C164.202 245.95 163.697 246.049 163.128 246.049ZM190.576 253.116C191.388 251.613 191.794 249.792 191.794 247.65C191.794 245.509 191.388 243.687 190.576 242.185C189.771 240.683 188.672 239.539 187.278 238.753C185.891 237.96 184.331 237.564 182.599 237.564C180.854 237.564 179.288 237.96 177.901 238.753C176.514 239.539 175.418 240.683 174.612 242.185C173.807 243.687 173.404 245.509 173.404 247.65C173.404 249.785 173.807 251.604 174.612 253.106C175.418 254.608 176.514 255.756 177.901 256.548C179.288 257.341 180.854 257.737 182.599 257.737C184.331 257.737 185.891 257.344 187.278 256.558C188.672 255.765 189.771 254.618 190.576 253.116ZM186.962 244.141C187.377 245.094 187.585 246.263 187.585 247.65C187.585 249.037 187.377 250.207 186.962 251.16C186.553 252.112 185.974 252.834 185.226 253.327C184.478 253.819 183.603 254.065 182.599 254.065C181.596 254.065 180.72 253.819 179.972 253.327C179.224 252.834 178.642 252.112 178.227 251.16C177.818 250.207 177.613 249.037 177.613 247.65C177.613 246.263 177.818 245.094 178.227 244.141C178.642 243.189 179.224 242.466 179.972 241.974C180.72 241.482 181.596 241.236 182.599 241.236C183.603 241.236 184.478 241.482 185.226 241.974C185.974 242.466 186.553 243.189 186.962 244.141ZM201.799 244.525L197.839 237.832H193.132L199.163 247.65L193.017 257.469H197.772L201.799 250.767H201.953L205.98 257.469H210.755L204.628 247.65L210.62 237.832H205.932L201.953 244.525H201.799Z" fill="url(#paint0_linear_0_1)"/>
<g filter="url(#filter0_dd_0_1)">
<path d="M4 59.2816L74.0623 0.813448L144.839 58.4461L74.9298 115.746L4 59.2816Z" fill="url(#paint1_linear_0_1)"/>
<path d="M145.523 173.532L215.359 116.1L285.689 174.103L216.788 231.849L145.523 173.532Z" fill="url(#paint2_linear_0_1)"/>
<path d="M144.531 58.5102L214.541 0L285.369 57.5899L215.359 116.1L144.531 58.5102Z" fill="url(#paint3_linear_0_1)"/>
<path d="M4.68252 174.063L74.9298 115.746L145.523 173.532L75.2758 231.849L4.68252 174.063Z" fill="url(#paint4_linear_0_1)"/>
</g>
<defs>
<filter id="filter0_dd_0_1" x="0" y="0" width="289.689" height="242.849" filterUnits="userSpaceOnUse" color-interpolation-filters="sRGB">
<feFlood flood-opacity="0" result="BackgroundImageFix"/>
<feColorMatrix in="SourceAlpha" type="matrix" values="0 0 0 0 0 0 0 0 0 0 0 0 0 0 0 0 0 0 127 0" result="hardAlpha"/>
<feOffset dy="4"/>
<feGaussianBlur stdDeviation="2"/>
<feComposite in2="hardAlpha" operator="out"/>
<feColorMatrix type="matrix" values="0 0 0 0 0 0 0 0 0 0 0 0 0 0 0 0 0 0 0.25 0"/>
<feBlend mode="normal" in2="BackgroundImageFix" result="effect1_dropShadow_0_1"/>
<feColorMatrix in="SourceAlpha" type="matrix" values="0 0 0 0 0 0 0 0 0 0 0 0 0 0 0 0 0 0 127 0" result="hardAlpha"/>
<feOffset dy="7"/>
<feGaussianBlur stdDeviation="2"/>
<feComposite in2="hardAlpha" operator="out"/>
<feColorMatrix type="matrix" values="0 0 0 0 0 0 0 0 0 0 0 0 0 0 0 0 0 0 0.7 0"/>
<feBlend mode="normal" in2="effect1_dropShadow_0_1" result="effect2_dropShadow_0_1"/>
<feBlend mode="normal" in="SourceGraphic" in2="effect2_dropShadow_0_1" result="shape"/>
</filter>
<linearGradient id="paint0_linear_0_1" x1="150.972" y1="271.512" x2="145.671" y2="142.098" gradientUnits="userSpaceOnUse">
<stop stop-color="#0023FF"/>
<stop offset="1" stop-color="white"/>
</linearGradient>
<linearGradient id="paint1_linear_0_1" x1="144.539" y1="-8.30162" x2="144.539" y2="241.724" gradientUnits="userSpaceOnUse">
<stop stop-color="#1C25FF"/>
<stop offset="0.609782" stop-color="#0047FF"/>
<stop offset="1" stop-color="white"/>
</linearGradient>
<linearGradient id="paint2_linear_0_1" x1="144.539" y1="-8.30162" x2="144.539" y2="241.724" gradientUnits="userSpaceOnUse">
<stop stop-color="#1C25FF"/>
<stop offset="0.609782" stop-color="#0047FF"/>
<stop offset="1" stop-color="white"/>
</linearGradient>
<linearGradient id="paint3_linear_0_1" x1="144.539" y1="-8.30162" x2="144.539" y2="241.724" gradientUnits="userSpaceOnUse">
<stop stop-color="#1C25FF"/>
<stop offset="0.609782" stop-color="#0047FF"/>
<stop offset="1" stop-color="white"/>
</linearGradient>
<linearGradient id="paint4_linear_0_1" x1="144.539" y1="-8.30162" x2="144.539" y2="241.724" gradientUnits="userSpaceOnUse">
<stop stop-color="#1C25FF"/>
<stop offset="0.609782" stop-color="#0047FF"/>
<stop offset="1" stop-color="white"/>
</linearGradient>
</defs>
</svg>
